name rise36.2859peak64.2979fall75.1499.mot
datacolumns 19
datarows 21
range 1.29666100000000 1.32999900000000
endheader
time	ground_force1_vx	ground_force1_vy	ground_force1_vz	ground_force1_px	ground_force1_py	ground_force1_pz	ground_force2_vx	ground_force2_vy	ground_force2_vz	ground_force2_px	ground_force2_py	ground_force2_pz	ground_torque1_x	ground_torque1_y	ground_torque1_z	ground_torque2_x	ground_torque2_y	ground_torque2_z	
1.29666100000000	-37.36893200000000	803.43670799999995	60.21342000000000	0.18920000000000	0.00000000000000	0.08758800000000	-2.23503600000000	28.79581900000000	0.78803900000000	0.41500600000000	0.00000000000000	-0.10539600000000	0.00000000000000	29.78982800000000	0.00000000000000	0.00000000000000	0.19297400000000	0.00000000000000	
1.29832700000000	-37.92009300000000	801.58046800000000	60.07208400000000	0.18824300000000	0.00000000000000	0.08755000000000	-2.55475900000000	35.52588300000000	0.92387400000000	0.41874900000000	0.00000000000000	-0.10572500000000	0.00000000000000	29.67825100000000	0.00000000000000	0.00000000000000	0.24651500000000	0.00000000000000	
1.29999300000000	-38.48527700000000	799.60478899999998	59.90706700000000	0.18727800000000	0.00000000000000	0.08750900000000	-2.82912700000000	42.55652900000000	1.05145500000000	0.42198200000000	0.00000000000000	-0.10601800000000	0.00000000000000	29.56098500000000	0.00000000000000	0.00000000000000	0.30424400000000	0.00000000000000	
1.30166700000000	-39.06485700000000	797.50975700000004	59.71810800000000	0.18630400000000	0.00000000000000	0.08746500000000	-3.04305600000000	49.75930800000000	1.16598900000000	0.42480300000000	0.00000000000000	-0.10628100000000	0.00000000000000	29.43816900000000	0.00000000000000	0.00000000000000	0.36522400000000	0.00000000000000	
1.30334600000000	-39.65914900000000	795.29548599999998	59.50498700000000	0.18532300000000	0.00000000000000	0.08741800000000	-3.18408600000000	57.01733400000000	1.26339200000000	0.42728600000000	0.00000000000000	-0.10651700000000	0.00000000000000	29.30995300000000	0.00000000000000	0.00000000000000	0.42853300000000	0.00000000000000	
1.30499200000000	-40.26841300000000	792.96211800000003	59.26753200000000	0.18433500000000	0.00000000000000	0.08736800000000	-3.24297100000000	64.23283900000000	1.34049800000000	0.42949300000000	0.00000000000000	-0.10673100000000	0.00000000000000	29.17649700000000	0.00000000000000	0.00000000000000	0.49332300000000	0.00000000000000	
1.30666000000000	-40.89285300000000	790.50981200000001	59.00561700000000	0.18334000000000	0.00000000000000	0.08731400000000	-3.21393300000000	71.33208100000000	1.39516100000000	0.43147100000000	0.00000000000000	-0.10692600000000	0.00000000000000	29.03797000000000	0.00000000000000	0.00000000000000	0.55886000000000	0.00000000000000	
1.30836800000000	-41.53260800000000	787.93873299999996	58.71916500000000	0.18234000000000	0.00000000000000	0.08725700000000	-3.09459200000000	78.26750699999999	1.42625400000000	0.43326100000000	0.00000000000000	-0.10710400000000	0.00000000000000	28.89454700000000	0.00000000000000	0.00000000000000	0.62455100000000	0.00000000000000	
1.30999100000000	-42.18775200000000	785.24904700000002	58.40814600000000	0.18133400000000	0.00000000000000	0.08719600000000	-2.88564400000000	85.01739400000000	1.43359300000000	0.43489300000000	0.00000000000000	-0.10726800000000	0.00000000000000	28.74641300000000	0.00000000000000	0.00000000000000	0.68995200000000	0.00000000000000	
1.31166700000000	-42.85829300000000	782.44091500000002	58.07257900000000	0.18032400000000	0.00000000000000	0.08713200000000	-2.59033600000000	91.58343499999999	1.41778400000000	0.43639500000000	0.00000000000000	-0.10741800000000	0.00000000000000	28.59375500000000	0.00000000000000	0.00000000000000	0.75476300000000	0.00000000000000	
1.31332900000000	-43.54417200000000	779.51448300000004	57.71253200000000	0.17931000000000	0.00000000000000	0.08706400000000	-2.21382700000000	97.98680600000000	1.38004300000000	0.43778900000000	0.00000000000000	-0.10755700000000	0.00000000000000	28.43676900000000	0.00000000000000	0.00000000000000	0.81880500000000	0.00000000000000	
1.31499800000000	-44.24525600000000	776.46987799999999	57.32812300000000	0.17829500000000	0.00000000000000	0.08699300000000	-1.76251300000000	104.26331900000000	1.32198500000000	0.43909200000000	0.00000000000000	-0.10768600000000	0.00000000000000	28.27565100000000	0.00000000000000	0.00000000000000	0.88199600000000	0.00000000000000	
1.31666100000000	-44.96133900000000	773.30719999999997	56.91951700000000	0.17727800000000	0.00000000000000	0.08691700000000	-1.24336500000000	110.45821599999999	1.24542500000000	0.44032000000000	0.00000000000000	-0.10780400000000	0.00000000000000	28.11060100000000	0.00000000000000	0.00000000000000	0.94432100000000	0.00000000000000	
1.31833000000000	-45.69214100000000	770.02651900000001	56.48692900000000	0.17626100000000	0.00000000000000	0.08683800000000	-0.66334100000000	116.62109000000000	1.15219300000000	0.44148600000000	0.00000000000000	-0.10791500000000	0.00000000000000	27.94181900000000	0.00000000000000	0.00000000000000	1.00579800000000	0.00000000000000	
1.31999500000000	-46.43730600000000	766.62786800000003	56.03062200000000	0.17524600000000	0.00000000000000	0.08675500000000	-0.02890100000000	122.80131900000001	1.04398200000000	0.44260000000000	0.00000000000000	-0.10801700000000	0.00000000000000	27.76950600000000	0.00000000000000	0.00000000000000	1.06644900000000	0.00000000000000	
1.32166000000000	-47.19639900000000	763.11124299999994	55.55090800000000	0.17423200000000	0.00000000000000	0.08666700000000	0.65434200000000	129.04428400000000	0.92222600000000	0.44367200000000	0.00000000000000	-0.10811200000000	0.00000000000000	27.59386000000000	0.00000000000000	0.00000000000000	1.12627200000000	0.00000000000000	
1.32333300000000	-47.96890600000000	759.47659499999997	55.04814400000000	0.17322300000000	0.00000000000000	0.08657600000000	1.38185300000000	135.38852600000001	0.78802800000000	0.44470800000000	0.00000000000000	-0.10820000000000	0.00000000000000	27.41507700000000	0.00000000000000	0.00000000000000	1.18522200000000	0.00000000000000	
1.32499800000000	-48.75423300000000	755.72382800000003	54.52273500000000	0.17221900000000	0.00000000000000	0.08648000000000	2.15027000000000	141.86389000000000	0.64212000000000	0.44571600000000	0.00000000000000	-0.10828200000000	0.00000000000000	27.23334600000000	0.00000000000000	0.00000000000000	1.24319300000000	0.00000000000000	
1.32666200000000	-49.55170600000000	751.85279900000000	53.97513100000000	0.17122100000000	0.00000000000000	0.08638000000000	2.95739300000000	148.49062499999999	0.48485800000000	0.44670000000000	0.00000000000000	-0.10835900000000	0.00000000000000	27.04885500000000	0.00000000000000	0.00000000000000	1.30001100000000	0.00000000000000	
1.32832500000000	-50.36056600000000	747.86331600000005	53.40582400000000	0.17023100000000	0.00000000000000	0.08627600000000	3.80207800000000	155.27933300000001	0.31625100000000	0.44766600000000	0.00000000000000	-0.10843000000000	0.00000000000000	26.86177900000000	0.00000000000000	0.00000000000000	1.35543100000000	0.00000000000000	
1.32999900000000	-51.17997500000000	743.75513699999999	52.81535200000000	0.16925100000000	0.00000000000000	0.08616700000000	4.68407100000000	162.23161600000000	0.13600800000000	0.44861600000000	0.00000000000000	-0.10849500000000	0.00000000000000	26.67229000000000	0.00000000000000	0.00000000000000	1.40913600000000	0.00000000000000	
